<svg width="96" height="96" xmlns="http://www.w3.org/2000/svg" xmlns:xlink="http://www.w3.org/1999/xlink" xml:space="preserve" overflow="hidden"><g transform="translate(-505 -235)"><path d="M591 270C592.105 270 593 269.105 593 268L593 258C593 256.895 592.105 256 591 256L580 256 580 252C580 251.448 579.552 251 579 251 578.448 251 578 251.448 578 252L578 256 528 256 528 252C528 251.448 527.552 251 527 251 526.448 251 526 251.448 526 252L526 256 515 256C513.895 256 513 256.895 513 258L513 268C513 269.105 513.895 270 515 270L526 270 526 282 515 282C513.895 282 513 282.895 513 284L513 294C513 295.105 513.895 296 515 296L526 296 526 318 520 318C519.448 318 519 318.448 519 319 519 319.552 519.448 320 520 320L534 320C534.552 320 535 319.552 535 319 535 318.448 534.552 318 534 318L528 318 528 296 578 296 578 318 572 318C571.448 318 571 318.448 571 319 571 319.552 571.448 320 572 320L586 320C586.552 320 587 319.552 587 319 587 318.448 586.552 318 586 318L580 318 580 296 591 296C592.105 296 593 295.105 593 294L593 284C593 282.895 592.105 282 591 282L580 282 580 270ZM529.414 268 519.414 258 531.586 258 541.586 268ZM544.414 268 534.414 258 546.586 258 556.586 268ZM559.414 268 549.414 258 561.586 258 571.586 268ZM574.414 268 564.414 258 576.586 258 586.586 268ZM590.99 268 589.414 268 579.414 258 590.99 258C590.995 257.999 590.999 258.003 591 258.008 591 258.009 591 258.009 591 258.01L591 267.99C591.001 267.995 590.997 267.999 590.992 268 590.991 268 590.991 268 590.99 268ZM515.01 258 516.586 258 526.586 268 515.01 268C515.005 268.001 515.001 267.997 515 267.992 515 267.991 515 267.991 515 267.99L515 258.01C514.999 258.005 515.003 258.001 515.008 258 515.009 258 515.009 258 515.01 258ZM576.586 284 586.586 294 574.414 294 564.414 284ZM561.586 284 571.586 294 559.414 294 549.414 284ZM546.586 284 556.586 294 544.414 294 534.414 284ZM531.586 284 541.586 294 529.414 294 519.414 284ZM515.01 284 516.586 284 526.586 294 515.01 294C515.005 294.001 515.001 293.997 515 293.992 515 293.991 515 293.991 515 293.99L515 284.01C514.999 284.005 515.003 284.001 515.008 284 515.009 284 515.009 284 515.01 284ZM590.99 294 589.414 294 579.414 284 590.99 284C590.995 283.999 590.999 284.003 591 284.008 591 284.009 591 284.009 591 284.01L591 293.99C591.001 293.995 590.997 293.999 590.992 294 590.991 294 590.991 294 590.99 294ZM578 282 528 282 528 270 578 270Z"/></g></svg>