<svg width="96" height="96" xmlns="http://www.w3.org/2000/svg" xmlns:xlink="http://www.w3.org/1999/xlink" xml:space="preserve" overflow="hidden"><g transform="translate(-653 -235)"><path d="M709 288.355 709 274.355 681.887 288.414 678.93 248 669.07 248 666 290 666 318 736 318 736 274.355ZM677.07 250 677.436 255 670.564 255 670.93 250ZM670.417 257 677.583 257 679.924 289 668.076 289ZM681.3 290.969 707 277.645 707 291.645 734 277.645 734 316 668 316 668 291 680.07 291Z"/><path d="M673 310 689 310 689 300 673 300ZM687 308 682 308 682 302 687 302ZM675 302 680 302 680 308 675 308Z"/><path d="M693 310 709 310 709 300 693 300ZM707 308 702 308 702 302 707 302ZM695 302 700 302 700 308 695 308Z"/><path d="M729 300 713 300 713 310 729 310ZM715 302 720 302 720 308 715 308ZM727 308 722 308 722 302 727 302Z"/></g></svg>