<svg width="96" height="96" xmlns="http://www.w3.org/2000/svg" xmlns:xlink="http://www.w3.org/1999/xlink" xml:space="preserve" overflow="hidden"><g transform="translate(-952 -479)"><path d="M1024 565 1024 488 976 488 976 565 962 565 962 567 978 567 978 490 1022 490 1022 567 1038 567 1038 565Z"/><path d="M982 567.1 1013 562.8 1013 498.1 982 493.8 982 567.1ZM984 496.1 1011 499.8 1011 561.1 984 564.8 984 496.1Z"/><path d="M1007.7 528C1006.6 528.1 1005.7 528.9 1005.5 530L1001 530 1001 532 1005.5 532C1005.7 533.1 1006.6 533.9 1007.7 534 1009 534 1010 532.7 1010 531 1010 529.3 1009 528 1007.7 528ZM1007.7 530C1007.8 530 1008 530.5 1008 531 1008 531.4 1007.8 532 1007.7 532 1007.5 532 1007.3 531.4 1007.4 531 1007.3 530.5 1007.6 530 1007.7 530Z"/></g></svg>