<svg width="96" height="96" xmlns="http://www.w3.org/2000/svg" xmlns:xlink="http://www.w3.org/1999/xlink" xml:space="preserve" overflow="hidden"><g transform="translate(-207 -235)"><path d="M285.532 256.9C274.914 256.042 265.02 251.18 257.853 243.3 256.5 241.731 254.132 241.556 252.563 242.908 252.423 243.029 252.292 243.16 252.171 243.3 245.005 251.18 235.108 256.038 224.491 256.887 222.516 257.079 221.014 258.746 221.03 260.73L221.03 270.414C221.03 291.476 234.385 310.742 252.921 322.663 254.193 323.487 255.83 323.487 257.102 322.663 275.639 310.746 288.993 291.49 288.993 270.428L288.993 260.745C289.013 258.759 287.509 257.088 285.532 256.9ZM286.993 270.427C286.993 289.612 275.415 308.512 256.021 320.984 255.408 321.384 254.616 321.384 254.003 320.984 234.609 308.513 223.03 289.609 223.03 270.418L223.03 260.734C223.012 259.791 223.715 258.99 224.652 258.885 235.778 258.004 246.149 252.914 253.652 244.651 254.262 243.899 255.367 243.784 256.119 244.394 256.214 244.471 256.299 244.557 256.376 244.651 263.88 252.913 274.25 258.006 285.376 258.895 286.314 259 287.017 259.802 286.999 260.745Z"/></g></svg>